<?xml version="1.0" encoding="UTF-8"?>
<svg id="_レイヤー_2" data-name="レイヤー 2" xmlns="http://www.w3.org/2000/svg" viewBox="0 0 566.93 566.93">
  <defs>
    <style>
      .cls-1 {
        fill: #303030;
        stroke-width: 0px;
      }
    </style>
  </defs>
  <g id="_レイヤー_2-2" data-name="レイヤー 2">
    <path class="cls-1" d="m566.93,283.46c0,156.55-126.91,283.46-283.46,283.46S0,440.02,0,283.46,126.91,0,283.46,0s283.46,126.91,283.46,283.46Zm-216.81,166.9c-13.45-2.96-22.56-7.97-27.34-15.04-4.33-6.38-6.49-16.97-6.49-31.79,0-61.98.45-122.82,1.37-182.52.22-11.85-4.22-17.77-13.33-17.77-2.73,0-10.03,4.1-21.88,12.3-14.81,9.8-31.79,17.66-50.93,23.58-10.25,3.19-15.38,8.09-15.38,14.7,0,5.01,3.53,8.77,10.6,11.28,15.72,5.24,26.09,12.88,31.1,22.9,3.64,7.29,5.47,19.94,5.47,37.94v89.55c0,21.42-6.61,34.07-19.82,37.94-12.08,3.42-18.12,7.75-18.12,12.99,0,5.7,1.14,9.34,3.42,10.94,2.28,1.59,7.86,1.93,16.75,1.03,32.81-3.19,66.19-3.64,100.15-1.37,9.79.68,15.26.91,16.41.68,4.33-.91,7.06-4.67,8.2-11.28,1.37-7.29-5.36-12.65-20.17-16.06Zm-52.64-403.66c-9.57,0-18.52,4.33-26.83,12.99-8.32,8.66-12.48,18-12.48,28.03s3.42,18.57,10.25,24.95c6.84,6.38,15.61,9.57,26.32,9.57,9.34,0,17.94-4.5,25.81-13.5,7.86-9,11.79-18.74,11.79-29.22,0-21.88-11.62-32.81-34.86-32.81Z"/>
  </g>
</svg>