<!--?xml version="1.0" encoding="utf-8"?-->
<!-- Generator: Adobe Illustrator 15.1.0, SVG Export Plug-In . SVG Version: 6.00 Build 0)  -->

<svg version="1.1" id="_x32_" xmlns="http://www.w3.org/2000/svg" xmlns:xlink="http://www.w3.org/1999/xlink" x="0px" y="0px" width="512px" height="512px" viewBox="0 0 512 512" style="width: 256px; height: 256px; opacity: 1;" xml:space="preserve">
<style type="text/css" id="generated-id-1697036395858-qlbq43ynv">

	.st0{fill:#303030;}

</style>
<g>
	<path class="st0" d="M452.938,19.112c-3.219-2.109-7.281-2.469-10.813-0.953L188.641,127.034l-0.016,194.282l253.5,108.891
		c3.531,1.516,7.594,1.156,10.813-0.969s5.156-5.703,5.156-9.563V28.69C458.094,24.831,456.188,21.221,452.938,19.112z" style="fill: #303030;"></path>
	<path class="st0" d="M167.063,127.034H45.844c-25.313,0-45.828,20.516-45.828,45.828L0,275.472
		c0,25.328,20.531,45.844,45.844,45.844h121.219V127.034z" style="fill: #303030;"></path>
	<path class="st0" d="M475.625,186.44v86.25c15.625,0,36.375-19.313,36.375-43.11C512,205.752,491.25,186.44,475.625,186.44z" style="fill: #303030;"></path>
	<path class="st0" d="M147.969,342.753H66.031L99.656,478.44c1.844,9.5,10.156,16.328,19.813,16.328h46.578
		c6.359,0,12.359-3,16.172-8.125c3.828-5.094,5-11.703,3.188-17.813L147.969,342.753z" style="fill: #303030;"></path>
</g>
</svg>
